{
  "accessors": [
    {
      "bufferView": 1,
      "componentType": 5126,
      "count": 12714,
      "max": [
        1.7975399494171143,
        0.44247999787330627,
        1.7620500326156616
      ],
      "min": [
        -1.7975399494171143,
        -0.33529999852180481,
        -0.57284998893737793
      ],
      "type": "VEC3"
    },
    {
      "bufferView": 1,
      "byteOffset": 152568,
      "componentType": 5126,
      "count": 12714,
      "max": [
        1,
        0.99999970197677612,
        0.9999316930770874
      ],
      "min": [
        -0.99998730421066284,
        -0.99981564283370972,
        -0.99888646602630615
      ],
      "type": "VEC3"
    },
    {
      "bufferView": 0,
      "componentType": 5125,
      "count": 71808,
      "max": [
        12713
      ],
      "min": [
        0
      ],
      "type": "SCALAR"
    },
    {
      "bufferView": 1,
      "byteOffset": 305136,
      "componentType": 5126,
      "count": 474,
      "max": [
        0.16704000532627106,
        0.068410001695156097,
        1.6041899919509888
      ],
      "min": [
        -0.16704000532627106,
        -0.16403999924659729,
        0.89559000730514526
      ],
      "type": "VEC3"
    },
    {
      "bufferView": 1,
      "byteOffset": 310824,
      "componentType": 5126,
      "count": 474,
      "max": [
        0.99972051382064819,
        0.99594718217849731,
        0.70222282409667969
      ],
      "min": [
        -0.99972051382064819,
        -0.9987034797668457,
        -0.20072579383850098
      ],
      "type": "VEC3"
    },
    {
      "bufferView": 0,
      "byteOffset": 287232,
      "componentType": 5125,
      "count": 2304,
      "max": [
        473
      ],
      "min": [
        0
      ],
      "type": "SCALAR"
    },
    {
      "bufferView": 1,
      "byteOffset": 316512,
      "componentType": 5126,
      "count": 7501,
      "max": [
        0.74787998199462891,
        0.18951000273227692,
        1.3903499841690063
      ],
      "min": [
        -0.74787998199462891,
        -0.70085000991821289,
        -1.2949199676513672
      ],
      "type": "VEC3"
    },
    {
      "bufferView": 1,
      "byteOffset": 406524,
      "componentType": 5126,
      "count": 7501,
      "max": [
        0.99998778104782104,
        0.99989861249923706,
        0.99999672174453735
      ],
      "min": [
        -0.99998778104782104,
        -0.99984854459762573,
        -0.9999968409538269
      ],
      "type": "VEC3"
    },
    {
      "bufferView": 0,
      "byteOffset": 296448,
      "componentType": 5125,
      "count": 44448,
      "max": [
        7500
      ],
      "min": [
        0
      ],
      "type": "SCALAR"
    },
    {
      "bufferView": 1,
      "byteOffset": 496536,
      "componentType": 5126,
      "count": 501,
      "max": [
        0.10487999767065048,
        -0.16368000209331512,
        1.0955499410629272
      ],
      "min": [
        -0.10487999767065048,
        -0.59947997331619263,
        1.0252599716186523
      ],
      "type": "VEC3"
    },
    {
      "bufferView": 1,
      "byteOffset": 502548,
      "componentType": 5126,
      "count": 501,
      "max": [
        0.99968075752258301,
        0.95157653093338013,
        0.99990075826644897
      ],
      "min": [
        -0.99968075752258301,
        -0.5049164891242981,
        -0.99998992681503296
      ],
      "type": "VEC3"
    },
    {
      "bufferView": 0,
      "byteOffset": 474240,
      "componentType": 5125,
      "count": 2880,
      "max": [
        500
      ],
      "min": [
        0
      ],
      "type": "SCALAR"
    }
  ],
  "asset": {
    "extras": {
      "author": "SteveTheDragon (https://sketchfab.com/SteveTheDragon)",
      "license": "CC-BY-4.0 (http://creativecommons.org/licenses/by/4.0/)",
      "source": "https://sketchfab.com/models/57b3d5631e4649da907977353aece0c8",
      "title": "Daffy Duck"
    },
    "generator": "Sketchfab-4.16.0",
    "version": "2.0"
  },
  "bufferViews": [
    {
      "buffer": 0,
      "byteLength": 485760,
      "byteOffset": 0,
      "name": "floatBufferViews",
      "target": 34963
    },
    {
      "buffer": 0,
      "byteLength": 508560,
      "byteOffset": 485760,
      "byteStride": 12,
      "name": "floatBufferViews",
      "target": 34962
    }
  ],
  "buffers": [
    {
      "byteLength": 994320,
      "uri": "scene.bin"
    }
  ],
  "materials": [
    {
      "doubleSided": true,
      "emissiveFactor": [
        0,
        0,
        0
      ],
      "name": "Material",
      "pbrMetallicRoughness": {
        "baseColorFactor": [
          0.012216799,
          0.012216799,
          0.012216799,
          1
        ],
        "metallicFactor": 0,
        "roughnessFactor": 0.59999999999999998
      }
    },
    {
      "doubleSided": true,
      "emissiveFactor": [
        0,
        0,
        0
      ],
      "name": "Material.001",
      "pbrMetallicRoughness": {
        "baseColorFactor": [
          0.80000001190000003,
          0.80000001190000003,
          0.80000001190000003,
          1
        ],
        "metallicFactor": 0,
        "roughnessFactor": 0.59999999999999998
      }
    },
    {
      "doubleSided": true,
      "emissiveFactor": [
        0,
        0,
        0
      ],
      "name": "Material.002",
      "pbrMetallicRoughness": {
        "baseColorFactor": [
          0.80000007149999997,
          0.34561464190000002,
          0.0098025453999999995,
          1
        ],
        "metallicFactor": 0,
        "roughnessFactor": 0.59999999999999998
      }
    },
    {
      "doubleSided": true,
      "emissiveFactor": [
        0,
        0,
        0
      ],
      "name": "Material.003",
      "pbrMetallicRoughness": {
        "baseColorFactor": [
          0.80000007149999997,
          0.25091895460000002,
          0.58660078049999997,
          1
        ],
        "metallicFactor": 0,
        "roughnessFactor": 0.59999999999999998
      }
    }
  ],
  "meshes": [
    {
      "name": "Cube_0",
      "primitives": [
        {
          "attributes": {
            "NORMAL": 1,
            "POSITION": 0
          },
          "indices": 2,
          "material": 0,
          "mode": 4
        }
      ]
    },
    {
      "name": "Cube_1",
      "primitives": [
        {
          "attributes": {
            "NORMAL": 4,
            "POSITION": 3
          },
          "indices": 5,
          "material": 1,
          "mode": 4
        }
      ]
    },
    {
      "name": "Cube_2",
      "primitives": [
        {
          "attributes": {
            "NORMAL": 7,
            "POSITION": 6
          },
          "indices": 8,
          "material": 2,
          "mode": 4
        }
      ]
    },
    {
      "name": "Cube_3",
      "primitives": [
        {
          "attributes": {
            "NORMAL": 10,
            "POSITION": 9
          },
          "indices": 11,
          "material": 3,
          "mode": 4
        }
      ]
    }
  ],
  "nodes": [
    {
      "children": [
        1
      ],
      "name": "RootNode (gltf orientation matrix)",
      "rotation": [
        -0.70710678118654746,
        -0,
        -0,
        0.70710678118654757
      ]
    },
    {
      "children": [
        2
      ],
      "name": "RootNode (model correction matrix)"
    },
    {
      "children": [
        3,
        5
      ],
      "name": "Root"
    },
    {
      "children": [
        4
      ],
      "matrix": [
        -0.29086000000000006,
        0.95517000000000007,
        -0.05519000000000001,
        0,
        -0.77110000000000001,
        -0.19988000000000003,
        0.60452000000000006,
        0,
        0.56639000000000006,
        0.21839000000000003,
        0.7946700000000001,
        0,
        4.0762500000000008,
        1.00545,
        5.9038600000000008,
        1
      ],
      "name": "Lamp"
    },
    {
      "name": "Lamp"
    },
    {
      "children": [
        6,
        7,
        8,
        9
      ],
      "matrix": [
        1,
        0,
        0,
        0,
        0,
        1,
        0,
        0,
        0,
        0,
        1,
        0,
        0,
        0,
        1.2934199999999998,
        1
      ],
      "name": "Cube"
    },
    {
      "mesh": 0,
      "name": "Cube_0"
    },
    {
      "mesh": 1,
      "name": "Cube_1"
    },
    {
      "mesh": 2,
      "name": "Cube_2"
    },
    {
      "mesh": 3,
      "name": "Cube_3"
    }
  ],
  "scene": 0,
  "scenes": [
    {
      "name": "OSG_Scene",
      "nodes": [
        0
      ]
    }
  ]
}

